<mxfile host="app.diagrams.net" modified="2022-02-19T09:44:02.061Z" agent="5.0 (Macintosh; Intel Mac OS X 10_15_7) AppleWebKit/537.36 (KHTML, like Gecko) Chrome/98.0.4758.102 Safari/537.36" etag="9XBwie7hIfjr3WWsSO-8" version="16.6.1" type="github">
  <diagram name="Page-1" id="03018318-947c-dd8e-b7a3-06fadd420f32">
    <mxGraphModel dx="1598" dy="1273" grid="1" gridSize="10" guides="1" tooltips="1" connect="1" arrows="1" fold="1" page="1" pageScale="1" pageWidth="1100" pageHeight="850" background="#ffffff" math="0" shadow="0">
      <root>
        <mxCell id="0" />
        <mxCell id="1" parent="0" />
        <mxCell id="Ovols8LrpRJhvHOQ9lbO-12" value="" style="group" vertex="1" connectable="0" parent="1">
          <mxGeometry x="60" y="190" width="1020" height="410" as="geometry" />
        </mxCell>
        <mxCell id="677b7b8949515195-8" value="" style="whiteSpace=wrap;html=1;rounded=0;shadow=0;labelBackgroundColor=none;strokeWidth=1;fillColor=none;fontFamily=Verdana;fontSize=12;align=center;comic=1;sketch=0;movable=1;resizable=1;rotatable=1;deletable=1;editable=1;connectable=1;" parent="Ovols8LrpRJhvHOQ9lbO-12" vertex="1">
          <mxGeometry width="1020" height="410" as="geometry" />
        </mxCell>
        <mxCell id="677b7b8949515195-9" value="" style="line;strokeWidth=1;html=1;rounded=0;shadow=0;labelBackgroundColor=none;fillColor=none;fontFamily=Verdana;fontSize=14;fontColor=#000000;align=center;comic=1;movable=1;resizable=1;rotatable=1;deletable=1;editable=1;connectable=1;" parent="Ovols8LrpRJhvHOQ9lbO-12" vertex="1">
          <mxGeometry y="130" width="1020" height="10" as="geometry" />
        </mxCell>
        <mxCell id="Ovols8LrpRJhvHOQ9lbO-6" value="" style="line;strokeWidth=1;html=1;rounded=0;shadow=0;labelBackgroundColor=none;fillColor=none;fontFamily=Verdana;fontSize=14;fontColor=#000000;align=center;comic=1;movable=1;resizable=1;rotatable=1;deletable=1;editable=1;connectable=1;" vertex="1" parent="Ovols8LrpRJhvHOQ9lbO-12">
          <mxGeometry y="260" width="1020" height="10" as="geometry" />
        </mxCell>
        <mxCell id="Ovols8LrpRJhvHOQ9lbO-13" value="" style="rounded=1;whiteSpace=wrap;html=1;absoluteArcSize=1;arcSize=14;strokeWidth=2;shadow=0;glass=0;sketch=0;" vertex="1" parent="Ovols8LrpRJhvHOQ9lbO-12">
          <mxGeometry x="220" y="140" width="100" height="120" as="geometry" />
        </mxCell>
      </root>
    </mxGraphModel>
  </diagram>
</mxfile>
